<?xml version="1.0" encoding="UTF-8"?>
<svg width="800" height="400" viewBox="0 0 800 400" xmlns="http://www.w3.org/2000/svg">
  <!-- Background -->
  <rect width="800" height="400" fill="#f3f4f6"/>
  
  <!-- World Map Outline -->
  <path d="M100,100 C150,50 250,50 300,100 C350,150 450,150 500,100 C550,50 650,50 700,100 C750,150 750,250 700,300 C650,350 550,350 500,300 C450,250 350,250 300,300 C250,350 150,350 100,300 C50,250 50,150 100,100" 
        fill="#e5e7eb" 
        stroke="#d1d5db" 
        stroke-width="2"/>
  
  <!-- Major Continents -->
  <path d="M150,150 C200,100 300,100 350,150" fill="#f9fafb" stroke="#d1d5db"/>
  <path d="M400,150 C450,100 550,100 600,150" fill="#f9fafb" stroke="#d1d5db"/>
  <path d="M200,200 C250,150 350,150 400,200" fill="#f9fafb" stroke="#d1d5db"/>
  <path d="M450,200 C500,150 600,150 650,200" fill="#f9fafb" stroke="#d1d5db"/>
  
  <!-- Grid Lines -->
  <line x1="0" y1="100" x2="800" y2="100" stroke="#d1d5db" stroke-width="1" opacity="0.5"/>
  <line x1="0" y1="200" x2="800" y2="200" stroke="#d1d5db" stroke-width="1" opacity="0.5"/>
  <line x1="0" y1="300" x2="800" y2="300" stroke="#d1d5db" stroke-width="1" opacity="0.5"/>
  
  <line x1="200" y1="0" x2="200" y2="400" stroke="#d1d5db" stroke-width="1" opacity="0.5"/>
  <line x1="400" y1="0" x2="400" y2="400" stroke="#d1d5db" stroke-width="1" opacity="0.5"/>
  <line x1="600" y1="0" x2="600" y2="400" stroke="#d1d5db" stroke-width="1" opacity="0.5"/>
</svg> 